<svg width="42" height="42" viewBox="0 0 42 42" fill="none" xmlns="http://www.w3.org/2000/svg">
<path d="M30.1049 17.524V14.0496C30.1049 9.0292 26.0205 4.9447 21 4.9447C15.9796 4.9447 11.8951 9.02911 11.8951 14.0496V17.524C11.8951 19.3425 9.14282 19.3444 9.14282 17.524V14.0496C9.14282 7.51153 14.462 2.19238 21 2.19238C27.5381 2.19238 32.8572 7.51145 32.8572 14.0496V17.524C32.8572 19.3425 30.1049 19.3443 30.1049 17.524Z" fill="#C3C3C7"/>
<path d="M21 2.19238V4.9447C26.0205 4.9447 30.1049 9.02911 30.1049 14.0496V17.524C30.1049 19.3443 32.8572 19.3425 32.8572 17.524V14.0497C32.8571 7.51153 27.5381 2.19238 21 2.19238Z" fill="#AAA9AF"/>
<path d="M17.7522 38.6292H10.519C9.75896 38.6292 9.14282 38.013 9.14282 37.253V31.4797C9.14282 30.7197 9.75896 30.1035 10.519 30.1035C11.279 30.1035 11.8951 30.7197 11.8951 31.4797V35.8769H17.7522C19.5706 35.8769 19.5725 38.6292 17.7522 38.6292Z" fill="#C3C3C7"/>
<path d="M7.13467 30.524H6.022C2.70137 30.524 0 27.8225 0 24.502C0 21.1815 2.70137 18.48 6.022 18.48H7.13467C7.89469 18.48 8.51082 19.0961 8.51082 19.8561V29.1477C8.51082 29.9078 7.89469 30.524 7.13467 30.524Z" fill="#797680"/>
<path d="M13.9033 32.8557H7.1347C6.37468 32.8557 5.75854 32.2396 5.75854 31.4796V17.5241C5.75854 16.7641 6.37468 16.1479 7.1347 16.1479H13.9033C14.6634 16.1479 15.2795 16.7641 15.2795 17.5241V31.4796C15.2795 32.2396 14.6633 32.8557 13.9033 32.8557Z" fill="#CA80DC"/>
<path d="M21.7055 39.8074H16.5634C15.8034 39.8074 15.1873 39.1913 15.1873 38.4312V36.0744C15.1873 35.3144 15.8034 34.6982 16.5634 34.6982H21.7055C22.4656 34.6982 23.0817 35.3144 23.0817 36.0744V38.4312C23.0817 39.1913 22.4656 39.8074 21.7055 39.8074Z" fill="#797680"/>
<path d="M35.9781 30.5238H34.8654C34.1054 30.5238 33.4893 29.9077 33.4893 29.1477V19.8561C33.4893 19.0961 34.1054 18.48 34.8654 18.48H35.9781C39.2985 18.48 42.0001 21.1814 42.0001 24.502C42.0001 27.8224 39.2987 30.5238 35.9781 30.5238Z" fill="#56565C"/>
<path d="M34.8653 32.8557H28.0966C27.3366 32.8557 26.7205 32.2396 26.7205 31.4796V17.5241C26.7205 16.7641 27.3366 16.1479 28.0966 16.1479H34.8653C35.6253 16.1479 36.2414 16.7641 36.2414 17.5241V31.4796C36.2414 32.2396 35.6254 32.8557 34.8653 32.8557Z" fill="#B757D1"/>
<path d="M21.7054 34.6982H21V39.8074H21.7054C22.4654 39.8074 23.0815 39.1913 23.0815 38.4312V36.0744C23.0815 35.3144 22.4654 34.6982 21.7054 34.6982Z" fill="#56565C"/>
</svg>
