<svg width="15" height="15" viewBox="0 0 15 15" fill="none" xmlns="http://www.w3.org/2000/svg">
<g clip-path="url(#clip0_613_1290)">
<path d="M0 7.49951C0 6.48951 0.2 5.51951 0.6 4.58951C1 3.65951 1.53 2.85951 2.19 2.18951C2.85 1.51951 3.65 0.989512 4.59 0.599512C5.53 0.209512 6.5 0.00951172 7.5 -0.000488281C8.52 -0.000488281 9.495 0.199512 10.425 0.599512C11.355 0.999512 12.15 1.52951 12.81 2.18951C13.47 2.84951 14 3.64951 14.4 4.58951C14.8 5.52951 15 6.49951 15 7.49951C15 8.51951 14.8 9.48951 14.4 10.4095C14 11.3295 13.47 12.1295 12.81 12.8095C12.15 13.4895 11.35 14.0245 10.41 14.4145C9.47 14.8045 8.5 14.9995 7.5 14.9995C6.5 14.9995 5.53 14.8045 4.59 14.4145C3.65 14.0245 2.85 13.4895 2.19 12.8095C1.53 12.1295 1 11.3295 0.6 10.4095C0.2 9.48951 0 8.51951 0 7.49951ZM1.875 7.49951C1.875 8.51951 2.125 9.46451 2.625 10.3345C3.125 11.2045 3.81 11.8845 4.68 12.3745C5.55 12.8645 6.49 13.1145 7.5 13.1245C8.51 13.1345 9.45 12.8845 10.32 12.3745C11.19 11.8645 11.875 11.1845 12.375 10.3345C12.875 9.48451 13.125 8.53951 13.125 7.49951C13.125 6.45951 12.875 5.51951 12.375 4.67951C11.875 3.83951 11.19 3.15951 10.32 2.63951C9.45 2.11951 8.51 1.86451 7.5 1.87451C6.49 1.88451 5.55 2.13951 4.68 2.63951C3.81 3.13951 3.125 3.81951 2.625 4.67951C2.125 5.53951 1.875 6.47951 1.875 7.49951ZM6.57 7.49951V4.69451C6.57 4.43451 6.66 4.21451 6.84 4.03451C7.02 3.85451 7.24 3.75951 7.5 3.74951C7.76 3.73951 7.98 3.83451 8.16 4.03451C8.34 4.23451 8.435 4.45451 8.445 4.69451V6.56951H10.32C10.57 6.56951 10.79 6.65951 10.98 6.83951C11.17 7.01951 11.26 7.23951 11.25 7.49951C11.24 7.75951 11.15 7.98451 10.98 8.17451C10.81 8.36451 10.59 8.45451 10.32 8.44451H7.5C7.24 8.44451 7.02 8.35451 6.84 8.17451C6.66 7.99451 6.57 7.76951 6.57 7.49951Z" fill="black"/>
</g>
<defs>
<clipPath id="clip0_613_1290">
<rect width="15" height="15" fill="white" transform="translate(0 -0.000488281)"/>
</clipPath>
</defs>
</svg>
