<svg width="16" height="16" viewBox="0 0 16 16" fill="none" xmlns="http://www.w3.org/2000/svg">
<path d="M12.0096 2.52784H10.7454V1.89576C10.7454 1.72812 10.6788 1.56734 10.5603 1.4488C10.4417 1.33027 10.281 1.26367 10.1133 1.26367C9.94569 1.26367 9.78491 1.33027 9.66638 1.4488C9.54784 1.56734 9.48124 1.72812 9.48124 1.89576V2.52784H5.68874V1.89576C5.68874 1.72812 5.62215 1.56734 5.50361 1.4488C5.38507 1.33027 5.2243 1.26367 5.05666 1.26367C4.88902 1.26367 4.72825 1.33027 4.60971 1.4488C4.49117 1.56734 4.42458 1.72812 4.42458 1.89576V2.52784H3.16041C2.65749 2.52784 2.17517 2.72762 1.81956 3.08324C1.46394 3.43885 1.26416 3.92117 1.26416 4.42409V12.0091C1.26416 12.512 1.46394 12.9943 1.81956 13.3499C2.17517 13.7056 2.65749 13.9053 3.16041 13.9053H12.0096C12.5125 13.9053 12.9948 13.7056 13.3504 13.3499C13.706 12.9943 13.9058 12.512 13.9058 12.0091V4.42409C13.9058 3.92117 13.706 3.43885 13.3504 3.08324C12.9948 2.72762 12.5125 2.52784 12.0096 2.52784ZM12.6417 12.0091C12.6417 12.1767 12.5751 12.3375 12.4565 12.456C12.338 12.5746 12.1772 12.6412 12.0096 12.6412H3.16041C2.99277 12.6412 2.832 12.5746 2.71346 12.456C2.59492 12.3375 2.52833 12.1767 2.52833 12.0091V7.5845H12.6417V12.0091ZM12.6417 6.32034H2.52833V4.42409C2.52833 4.25645 2.59492 4.09568 2.71346 3.97714C2.832 3.8586 2.99277 3.792 3.16041 3.792H4.42458V4.42409C4.42458 4.59173 4.49117 4.7525 4.60971 4.87104C4.72825 4.98958 4.88902 5.05617 5.05666 5.05617C5.2243 5.05617 5.38507 4.98958 5.50361 4.87104C5.62215 4.7525 5.68874 4.59173 5.68874 4.42409V3.792H9.48124V4.42409C9.48124 4.59173 9.54784 4.7525 9.66638 4.87104C9.78491 4.98958 9.94569 5.05617 10.1133 5.05617C10.281 5.05617 10.4417 4.98958 10.5603 4.87104C10.6788 4.7525 10.7454 4.59173 10.7454 4.42409V3.792H12.0096C12.1772 3.792 12.338 3.8586 12.4565 3.97714C12.5751 4.09568 12.6417 4.25645 12.6417 4.42409V6.32034Z" fill="black"/>
</svg>
