<svg width="15" height="16" viewBox="0 0 15 16" fill="none" xmlns="http://www.w3.org/2000/svg">
<path fill-rule="evenodd" clip-rule="evenodd" d="M0.0959473 8.00022C0.0959473 4.50992 0.0959472 2.76478 1.18024 1.68049C2.26453 0.596191 4.00968 0.596191 7.49997 0.596191C10.9902 0.596191 12.7354 0.596191 13.8197 1.68049C14.904 2.76478 14.904 4.50992 14.904 8.00022C14.904 11.4905 14.904 13.2357 13.8197 14.3199C12.7354 15.4042 10.9902 15.4042 7.49997 15.4042C4.00968 15.4042 2.26453 15.4042 1.18024 14.3199C0.0959472 13.2357 0.0959473 11.4905 0.0959473 8.00022ZM7.49997 3.7429C7.80665 3.7429 8.05528 3.99152 8.05528 4.29821V8.14038L9.32855 6.86718C9.54541 6.65032 9.89695 6.65032 10.1138 6.86718C10.3307 7.08404 10.3307 7.43559 10.1138 7.65245L7.89261 9.87366C7.78851 9.97783 7.64724 10.0363 7.49997 10.0363C7.35271 10.0363 7.21144 9.97783 7.10734 9.87366L4.88611 7.65245C4.66925 7.43559 4.66925 7.08404 4.88611 6.86718C5.10297 6.65032 5.45457 6.65032 5.67142 6.86718L6.94467 8.14038V4.29821C6.94467 3.99152 7.1933 3.7429 7.49997 3.7429ZM4.53836 11.1469C4.23168 11.1469 3.98306 11.3956 3.98306 11.7022C3.98306 12.0089 4.23168 12.2575 4.53836 12.2575H10.4616C10.7683 12.2575 11.0169 12.0089 11.0169 11.7022C11.0169 11.3956 10.7683 11.1469 10.4616 11.1469H4.53836Z" fill="white"/>
</svg>
