<svg width="23" height="23" viewBox="0 0 23 23" fill="none" xmlns="http://www.w3.org/2000/svg">
<path fill-rule="evenodd" clip-rule="evenodd" d="M16.2839 5.17743L17.7246 6.32467C17.8637 6.45562 17.9422 6.63851 17.9411 6.82958C17.9401 7.02063 17.8597 7.20266 17.7191 7.33207L16.6243 8.64215L12.8992 13.0848C12.834 13.1595 12.7473 13.2119 12.6508 13.2348L10.7188 13.6727C10.4654 13.6854 10.2447 13.5011 10.2119 13.2495V11.2642C10.2184 11.1684 10.257 11.0777 10.3214 11.0066L13.9775 6.87299L15.2324 5.37431C15.4806 5.04889 15.9347 4.96387 16.2839 5.17743Z" stroke="black" stroke-linecap="round" stroke-linejoin="round"/>
<path d="M11.0705 7.46887C11.4515 7.46887 11.7605 7.15995 11.7605 6.77887C11.7605 6.39779 11.4515 6.08887 11.0705 6.08887V7.46887ZM8.49449 6.77887V6.08887H8.49283L8.49449 6.77887ZM5.06013 10.2289H5.75013V10.2273L5.06013 10.2289ZM5.06013 15.4039L5.75013 15.4054V15.4039H5.06013ZM8.49449 18.8539L8.49283 19.5439H8.49449V18.8539ZM13.6465 18.8539V19.5439H13.6481L13.6465 18.8539ZM17.0808 15.4039H16.3908V15.4054L17.0808 15.4039ZM17.7708 11.9539C17.7708 11.5728 17.4619 11.2639 17.0808 11.2639C16.6998 11.2639 16.3908 11.5728 16.3908 11.9539H17.7708ZM14.6155 6.60941C14.4701 6.25717 14.0666 6.0895 13.7144 6.23492C13.3621 6.38033 13.1945 6.78376 13.3399 7.136L14.6155 6.60941ZM16.7735 9.31192C17.1455 9.22967 17.3805 8.86135 17.2982 8.48926C17.216 8.11716 16.8477 7.8822 16.4756 7.96445L16.7735 9.31192ZM7.63613 15.5769C7.25505 15.5769 6.94613 15.8857 6.94613 16.2669C6.94613 16.6479 7.25505 16.9569 7.63613 16.9569V15.5769ZM14.5058 16.9569C14.8868 16.9569 15.1958 16.6479 15.1958 16.2669C15.1958 15.8857 14.8868 15.5769 14.5058 15.5769V16.9569ZM11.0705 6.08887H8.49449V7.46887H11.0705V6.08887ZM8.49283 6.08887C6.21086 6.09435 4.36524 7.94838 4.37013 10.2304L5.75013 10.2273C5.74687 8.70744 6.97619 7.47252 8.49614 7.46887L8.49283 6.08887ZM4.37013 10.2289V15.4039H5.75013V10.2289H4.37013ZM4.37013 15.4023C4.36524 17.6843 6.21086 19.5384 8.49283 19.5439L8.49614 18.1639C6.97619 18.1602 5.74687 16.9253 5.75013 15.4054L4.37013 15.4023ZM8.49449 19.5439H13.6465V18.1639H8.49449V19.5439ZM13.6481 19.5439C15.9301 19.5384 17.7757 17.6843 17.7708 15.4023L16.3908 15.4054C16.3941 16.9253 15.1648 18.1602 13.6448 18.1639L13.6481 19.5439ZM17.7708 15.4039V11.9539H16.3908V15.4039H17.7708ZM13.3399 7.136C13.5192 7.57036 13.885 8.18601 14.4318 8.6617C14.991 9.1483 15.7946 9.52832 16.7735 9.31192L16.4756 7.96445C16.0478 8.05902 15.6761 7.9151 15.3376 7.62062C14.9866 7.31523 14.7324 6.89265 14.6155 6.60941L13.3399 7.136ZM7.63613 16.9569H14.5058V15.5769H7.63613V16.9569Z" fill="black"/>
</svg>
