<svg width="27" height="27" viewBox="0 0 27 27" fill="none" xmlns="http://www.w3.org/2000/svg">
<g clip-path="url(#clip0_234_3512)">
<mask id="mask0_234_3512" style="mask-type:luminance" maskUnits="userSpaceOnUse" x="0" y="0" width="27" height="27">
<path d="M27 0H0V27H27V0Z" fill="white"/>
</mask>
<g mask="url(#mask0_234_3512)">
<g filter="url(#filter0_d_234_3512)">
<path d="M16.1284 13.8899L15.8359 13.4094C15.6466 13.5248 15.5426 13.7404 15.5704 13.9604C15.5981 14.1802 15.7523 14.3633 15.9644 14.428L16.1284 13.8899ZM10.8712 13.8899L11.0352 14.428C11.2472 14.3633 11.4015 14.1802 11.4293 13.9604C11.457 13.7404 11.353 13.5248 11.1637 13.4094L10.8712 13.8899ZM17.9998 9.5625C17.9998 11.1915 17.1346 12.6189 15.8359 13.4094L16.4209 14.3704C18.0409 13.3842 19.1248 11.6002 19.1248 9.5625H17.9998ZM13.4998 5.0625C15.9851 5.0625 17.9998 7.07722 17.9998 9.5625H19.1248C19.1248 6.4559 16.6064 3.9375 13.4998 3.9375V5.0625ZM8.9998 9.5625C8.9998 7.07722 11.0145 5.0625 13.4998 5.0625V3.9375C10.3932 3.9375 7.8748 6.4559 7.8748 9.5625H8.9998ZM11.1637 13.4094C9.86502 12.6189 8.9998 11.1915 8.9998 9.5625H7.8748C7.8748 11.6002 8.95869 13.3842 10.5787 14.3704L11.1637 13.4094ZM10.7071 13.3518C7.15578 14.4348 4.48135 17.528 4.01097 21.3077L5.12735 21.4467C5.54202 18.1145 7.90163 15.3835 11.0352 14.428L10.7071 13.3518ZM4.01097 21.3077C3.88664 22.3067 4.71422 23.0625 5.6248 23.0625V21.9375C5.29276 21.9375 5.09821 21.6809 5.12735 21.4467L4.01097 21.3077ZM5.6248 23.0625H21.3748V21.9375H5.6248V23.0625ZM21.3748 23.0625C22.2854 23.0625 23.113 22.3067 22.9887 21.3077L21.8722 21.4467C21.9013 21.6809 21.7068 21.9375 21.3748 21.9375V23.0625ZM22.9887 21.3077C22.5183 17.528 19.8438 14.4348 16.2924 13.3518L15.9644 14.428C19.098 15.3835 21.4575 18.1145 21.8722 21.4467L22.9887 21.3077Z" fill="black"/>
</g>
</g>
</g>
<defs>
<filter id="filter0_d_234_3512" x="1.49854" y="3.9375" width="24.0024" height="24.125" filterUnits="userSpaceOnUse" color-interpolation-filters="sRGB">
<feFlood flood-opacity="0" result="BackgroundImageFix"/>
<feColorMatrix in="SourceAlpha" type="matrix" values="0 0 0 0 0 0 0 0 0 0 0 0 0 0 0 0 0 0 127 0" result="hardAlpha"/>
<feOffset dy="2.5"/>
<feGaussianBlur stdDeviation="1.25"/>
<feColorMatrix type="matrix" values="0 0 0 0 0 0 0 0 0 0 0 0 0 0 0 0 0 0 0.1 0"/>
<feBlend mode="normal" in2="BackgroundImageFix" result="effect1_dropShadow_234_3512"/>
<feBlend mode="normal" in="SourceGraphic" in2="effect1_dropShadow_234_3512" result="shape"/>
</filter>
<clipPath id="clip0_234_3512">
<rect width="27" height="27" fill="white"/>
</clipPath>
</defs>
</svg>
