<svg width="22" height="22" viewBox="0 0 22 22" fill="none" xmlns="http://www.w3.org/2000/svg">
<path d="M10.9998 13.2917V15.125M6.4165 9.19307C6.84864 9.16667 7.38138 9.16667 8.0665 9.16667H13.9332C14.6183 9.16667 15.1511 9.16667 15.5832 9.19307M6.4165 9.19307C5.87721 9.22598 5.4946 9.30004 5.16803 9.46642C4.65058 9.73005 4.22989 10.1507 3.96624 10.6682C3.6665 11.2565 3.6665 12.0265 3.6665 13.5667V14.85C3.6665 16.3902 3.6665 17.1602 3.96624 17.7485C4.22989 18.266 4.65058 18.6866 5.16803 18.9503C5.75628 19.25 6.52636 19.25 8.0665 19.25H13.9332C15.4734 19.25 16.2434 19.25 16.8317 18.9503C17.3491 18.6866 17.7698 18.266 18.0334 17.7485C18.3332 17.1602 18.3332 16.3902 18.3332 14.85V13.5667C18.3332 12.0265 18.3332 11.2565 18.0334 10.6682C17.7698 10.1507 17.3491 9.73005 16.8317 9.46642C16.5051 9.30004 16.1224 9.22598 15.5832 9.19307M6.4165 9.19307V7.33333C6.4165 4.80203 8.46854 2.75 10.9998 2.75C13.5311 2.75 15.5832 4.80203 15.5832 7.33333V9.19307" stroke="black" stroke-width="1.83333" stroke-linecap="round" stroke-linejoin="round"/>
</svg>
