<svg width="34" height="34" viewBox="0 0 34 34" fill="none" xmlns="http://www.w3.org/2000/svg">
<path d="M25.8966 18.8702V15.1302H24.2533C24.0833 14.4502 23.7999 13.7985 23.4599 13.2035L24.6216 12.0418L21.9866 9.40685L20.8249 10.5685C20.2016 10.2002 19.5499 9.91685 18.8699 9.74685V8.10352H15.1299V9.74685C14.4499 9.91685 13.7983 10.2002 13.2033 10.5685L12.0416 9.40685L9.40659 12.0418L10.5683 13.2035C10.2283 13.7985 9.94492 14.4502 9.77492 15.1302H8.13159V18.8702H9.77492C9.94492 19.5502 10.2283 20.2018 10.5683 20.7969L9.40659 21.9585L12.0416 24.5935L13.2033 23.4318C13.7983 23.8002 14.4499 24.0552 15.1299 24.2252V25.8685H18.8699V24.2252C19.5499 24.0552 20.2016 23.7718 20.7966 23.4318L21.9583 24.5935L24.5933 21.9585L23.4316 20.7969C23.7716 20.2018 24.0549 19.5502 24.2249 18.8702H25.8966ZM16.9999 21.1368C14.7049 21.1368 12.8633 19.2952 12.8633 17.0002C12.8633 14.7052 14.7049 12.8635 16.9999 12.8635C19.2949 12.8635 21.1366 14.7052 21.1366 17.0002C21.1366 19.2952 19.2949 21.1368 16.9999 21.1368Z" fill="#6BCB77"/>
<path d="M29.5233 16.8018C29.2967 16.8018 29.1267 16.9718 29.1267 17.1701C29.0133 23.8568 23.5167 29.2118 16.83 29.0984C13.6567 29.0418 10.71 27.7951 8.47167 25.5568C8.585 25.3584 8.67 25.1034 8.67 24.8484C8.67 24.0834 8.04667 23.4318 7.25334 23.4318C6.46 23.4318 5.83667 24.0551 5.83667 24.8484C5.83667 25.6134 6.46 26.2651 7.25334 26.2651C7.50834 26.2651 7.735 26.2084 7.93334 26.0951C10.3133 28.4751 13.4867 29.8068 16.83 29.8634C16.8867 29.8634 16.9717 29.8634 17.0283 29.8634C24.055 29.8634 29.8067 24.1968 29.92 17.1701C29.8917 16.9718 29.7217 16.8018 29.5233 16.8018ZM7.225 25.5284C6.85667 25.5284 6.57334 25.2451 6.57334 24.8768C6.57334 24.5084 6.85667 24.2251 7.225 24.2251C7.59334 24.2251 7.87667 24.5084 7.87667 24.8768C7.87667 25.2451 7.59334 25.5284 7.225 25.5284Z" fill="#FFD93D"/>
<path d="M17.1701 4.8734C20.0884 4.93007 22.8651 6.00673 25.0467 7.9334C24.9334 8.13173 24.8484 8.38673 24.8484 8.64173C24.8484 9.40673 25.4717 10.0584 26.2651 10.0584C27.0301 10.0584 27.6817 9.43507 27.6817 8.64173C27.6817 7.8484 27.0584 7.22506 26.2651 7.22506C26.0384 7.22506 25.8117 7.28173 25.6134 7.39507C23.2901 5.32673 20.3151 4.13673 17.1984 4.1084C17.1417 4.1084 17.0567 4.1084 17.0001 4.1084C9.9734 4.1084 4.22173 9.77506 4.1084 16.8017C4.1084 17.0001 4.2784 17.1984 4.47673 17.1984C4.67507 17.1984 4.84507 17.0284 4.8734 16.8301C4.98673 10.1434 10.5117 4.7884 17.1701 4.8734ZM26.9167 8.67007C26.9167 9.0384 26.6334 9.32173 26.2651 9.32173C25.8967 9.32173 25.6134 9.0384 25.6134 8.67007C25.6134 8.30173 25.8967 8.0184 26.2651 8.0184C26.6334 8.0184 26.9167 8.30173 26.9167 8.67007Z" fill="#FFD93D"/>
</svg>
