<svg width="20" height="21" viewBox="0 0 20 21" fill="none" xmlns="http://www.w3.org/2000/svg">
<path d="M10 6.39746V10.5L12.5641 13.0641" stroke="#1C274C" stroke-width="3.75" stroke-linecap="round" stroke-linejoin="round"/>
<path d="M2.14138 5.23909L1.37216 5.24295C1.37428 5.66476 1.7157 6.00619 2.13752 6.00831L2.14138 5.23909ZM4.74834 6.02143C5.17317 6.02356 5.51929 5.6809 5.52143 5.25607C5.52356 4.83124 5.1809 4.48512 4.75607 4.48298L4.74834 6.02143ZM2.89749 2.6244C2.89534 2.19957 2.54923 1.8569 2.1244 1.85904C1.69957 1.86118 1.3569 2.2073 1.35905 2.63212L2.89749 2.6244ZM1.53846 10.5C1.53846 10.0752 1.19406 9.73077 0.769231 9.73077C0.3444 9.73077 0 10.0752 0 10.5H1.53846ZM15.0005 19.1617C15.3683 18.949 15.4939 18.4785 15.2812 18.1107C15.0685 17.743 14.5979 17.6172 14.2303 17.8301L15.0005 19.1617ZM17.3301 14.7303C17.1172 15.0979 17.243 15.5685 17.6107 15.7812C17.9785 15.9939 18.449 15.8683 18.6617 15.5005L17.3301 14.7303ZM2.96444 3.3936C2.66254 3.6925 2.66011 4.17955 2.95903 4.48145C3.25793 4.78334 3.74496 4.78576 4.04686 4.48686L2.96444 3.3936ZM17.0383 3.46191C13.1201 -0.456246 6.78853 -0.495918 2.89631 3.39631L3.98416 4.48416C7.26529 1.20303 12.6228 1.22209 15.9505 4.54976L17.0383 3.46191ZM2.89631 3.39631L1.59746 4.69516L2.68531 5.78302L3.98416 4.48416L2.89631 3.39631ZM2.13752 6.00831L4.74834 6.02143L4.75607 4.48298L2.14525 4.46987L2.13752 6.00831ZM2.91061 5.23522L2.89749 2.6244L1.35905 2.63212L1.37216 5.24295L2.91061 5.23522ZM10 2.03846C14.6731 2.03846 18.4615 5.82682 18.4615 10.5H20C20 4.97715 15.5229 0.5 10 0.5V2.03846ZM10 18.9615C5.32682 18.9615 1.53846 15.1731 1.53846 10.5H0C0 16.0229 4.47715 20.5 10 20.5V18.9615ZM14.2303 17.8301C12.9865 18.5495 11.5425 18.9615 10 18.9615V20.5C11.8202 20.5 13.5289 20.013 15.0005 19.1617L14.2303 17.8301ZM18.4615 10.5C18.4615 12.0425 18.0495 13.4865 17.3301 14.7303L18.6617 15.5005C19.513 14.0289 20 12.3202 20 10.5H18.4615ZM4.04686 4.48686C5.57648 2.9724 7.67842 2.03846 10 2.03846V0.5C7.25684 0.5 4.77039 1.60555 2.96444 3.3936L4.04686 4.48686Z" fill="#1C274C"/>
</svg>
