<svg width="23" height="23" viewBox="0 0 23 23" fill="none" xmlns="http://www.w3.org/2000/svg">
<g clip-path="url(#clip0_234_3495)">
<path d="M5.88461 12.8269C6.50618 12.4321 6.91911 11.7392 6.91911 10.9484C6.91911 9.71819 5.92183 8.72119 4.69192 8.72119C3.46172 8.72119 2.46444 9.71819 2.46444 10.9484C2.46444 11.7392 2.878 12.4321 3.49895 12.8269C1.65086 13.3467 0.29541 15.0436 0.29541 17.0579C0.29541 19.4861 9.08786 19.4861 9.08786 17.0579C9.08786 15.0436 7.7327 13.3469 5.88461 12.8269Z" fill="#010002"/>
<path d="M22.8037 12.5046L18.552 8.25302V5.44895C18.552 5.09972 18.269 4.816 17.9188 4.816C17.5692 4.816 17.2861 5.09972 17.2861 5.44895V6.98747L14.2866 3.98856C14.0398 3.74144 13.6391 3.74144 13.3927 3.98856L9.13281 8.24844C9.49652 8.4774 9.78946 8.80569 9.9744 9.19616L13.8401 5.33015L21.9101 13.3998C22.0329 13.5229 22.1953 13.5853 22.3569 13.5853C22.5181 13.5853 22.6809 13.5238 22.804 13.3998C23.0508 13.1518 23.0508 12.7514 22.8037 12.5046Z" fill="#010002"/>
<path d="M20.9948 13.2302L14.2883 6.52373C14.1692 6.40465 14.0089 6.33789 13.8412 6.33789C13.6735 6.33789 13.5129 6.40465 13.3941 6.52373L10.1561 9.76145C10.1792 9.89009 10.1933 10.0224 10.1933 10.1575C10.1933 10.447 10.1386 10.7282 10.0358 10.988C10.9438 11.6483 11.5165 12.7195 11.5165 13.8859C11.5165 14.2927 11.3334 15.2119 9.79266 15.6553C9.91695 16.1054 9.98405 16.576 9.98405 17.0581C9.98405 17.7253 9.66803 18.2481 9.15723 18.6509H11.2865C11.7103 18.6509 12.1192 18.4718 12.4085 18.1585C12.6712 17.8748 12.8158 17.5065 12.8158 17.1212V14.7174C12.8158 14.134 13.2629 13.6469 13.8405 13.5918C14.4181 13.6469 14.8652 14.1343 14.8652 14.7174V17.1212C14.8652 17.5065 15.0101 17.8748 15.2723 18.1585C15.5609 18.4718 15.9698 18.6509 16.3942 18.6509H19.6679C20.5104 18.6509 21.1969 17.965 21.1969 17.1212V13.8475C21.1969 13.7518 21.188 13.6546 21.1686 13.558C21.1446 13.4333 21.0843 13.3198 20.9948 13.2302Z" fill="#010002"/>
<path d="M6.74023 12.6689C7.74306 13.1376 8.54307 13.9382 9.02683 14.91C9.92013 14.761 10.6201 14.4201 10.6201 13.886C10.6201 12.6569 9.79301 11.6215 8.66527 11.304C9.04437 11.0624 9.29697 10.6399 9.29697 10.1572C9.29697 9.40668 8.68801 8.79834 7.93784 8.79834C7.48582 8.79834 7.08675 9.0196 6.83963 9.35836C7.1698 9.8036 7.36764 10.3522 7.36764 10.9473C7.36735 11.5889 7.14117 12.1936 6.74023 12.6689Z" fill="#010002"/>
</g>
<defs>
<clipPath id="clip0_234_3495">
<rect width="22.6938" height="22.6938" fill="white" transform="translate(0.29541 -0.00634766)"/>
</clipPath>
</defs>
</svg>
