<svg width="229" height="239" viewBox="0 0 229 239" fill="none" xmlns="http://www.w3.org/2000/svg">
<g clip-path="url(#clip0_864_821)">
<path fill-rule="evenodd" clip-rule="evenodd" d="M114.691 217.333C166.164 217.333 207.892 175.606 207.892 124.133C207.892 72.6593 166.164 30.9319 114.691 30.9319C63.2178 30.9319 21.4905 72.6593 21.4905 124.133C21.4905 175.606 63.2178 217.333 114.691 217.333Z" stroke="#3AD29F" stroke-width="0.627614" stroke-dasharray="3.77 3.77"/>
<path fill-rule="evenodd" clip-rule="evenodd" d="M114.691 237.103C177.083 237.103 227.662 186.525 227.662 124.133C227.662 61.7407 177.083 11.1621 114.691 11.1621C52.2993 11.1621 1.7207 61.7407 1.7207 124.133C1.7207 186.525 52.2993 237.103 114.691 237.103Z" stroke="#3AD29F" stroke-width="0.627614" stroke-dasharray="3.77 3.77"/>
<path d="M190.3 160.123C190.303 146.971 180.296 135.976 167.202 134.745C154.107 133.513 142.226 142.45 139.777 155.372L61.4539 153.248L62.3137 166.704C62.3137 166.704 51.1453 192.474 109.843 199.34V225.386H177.701V182.08C185.498 177.515 190.292 169.159 190.3 160.123Z" fill="url(#paint0_linear_864_821)"/>
<path d="M65.0029 167.269C65.0029 167.269 54.3084 191.946 110.521 198.53V223.484H175.507V157.399L64.1682 154.381L65.0029 167.269Z" fill="#FFCBB4"/>
<path d="M97.4819 64.2866C93.9543 69.8529 86.5937 71.5256 81.007 68.0303L46.1148 45.0376C40.5484 41.5101 38.8758 34.1494 42.3711 28.5628C45.8981 23.004 53.2493 21.3323 58.8334 24.8191L93.7256 47.8117C99.2964 51.3351 100.975 58.6966 97.4819 64.2866Z" fill="url(#paint1_linear_864_821)"/>
<path d="M95.549 63.0314C92.2701 68.2054 85.4282 69.7602 80.2352 66.5115L47.7907 45.1224C42.6167 41.8435 41.0618 35.0016 44.3106 29.8086C47.5895 24.6346 54.4313 23.0797 59.6244 26.3285L92.0626 47.705C97.2465 50.9824 98.8051 57.8341 95.549 63.0314Z" fill="#FFCBB4"/>
<path d="M163.171 185.369C176.65 185.369 187.576 174.443 187.576 160.964C187.576 147.486 176.65 136.559 163.171 136.559C149.693 136.559 138.767 147.486 138.767 160.964C138.767 174.443 149.693 185.369 163.171 185.369Z" fill="#FFCBB4"/>
<path d="M158.778 0H65.2885C63.1654 0 61.4443 1.72108 61.4443 3.84414V178.779C61.4443 180.902 63.1654 182.623 65.2885 182.623H158.778C160.901 182.623 162.622 180.902 162.622 178.779V3.84414C162.622 1.72108 160.901 0 158.778 0Z" fill="url(#paint2_linear_864_821)"/>
<path d="M156.971 2.46973H67.0899C64.7259 2.46973 62.8096 4.38609 62.8096 6.75005V175.879C62.8096 178.243 64.7259 180.16 67.0899 180.16H156.971C159.334 180.16 161.251 178.243 161.251 175.879V6.75005C161.251 4.38609 159.334 2.46973 156.971 2.46973Z" fill="white"/>
<path d="M136.761 6.92572C136.173 10.8195 132.832 13.7018 128.894 13.7134H94.8962C90.9594 13.7003 87.6204 10.8183 87.0322 6.92572H69.0196C68.0279 6.92572 67.0764 7.31829 66.3748 8.01928C65.6733 8.72028 65.2791 9.67139 65.2791 10.6632V171.96C65.2791 172.952 65.6716 173.903 66.3726 174.605C67.0736 175.306 68.0247 175.701 69.0165 175.701H155.044C156.035 175.701 156.987 175.308 157.688 174.607C158.39 173.906 158.784 172.955 158.784 171.963V10.6663C158.784 9.67453 158.392 8.72309 157.691 8.0215C156.99 7.31992 156.038 6.92572 155.047 6.92572H136.761Z" fill="#E9ECFF"/>
<path d="M122.511 9.05023H101.828C101.482 9.05023 101.201 9.33122 101.201 9.67785V9.79395C101.201 10.1406 101.482 10.4216 101.828 10.4216H122.511C122.858 10.4216 123.139 10.1406 123.139 9.79395V9.67785C123.139 9.33122 122.858 9.05023 122.511 9.05023Z" fill="#DBDBDB"/>
<path d="M127.799 10.6217C128.364 10.6217 128.821 10.164 128.821 9.59932C128.821 9.03469 128.364 8.57697 127.799 8.57697C127.234 8.57697 126.777 9.03469 126.777 9.59932C126.777 10.164 127.234 10.6217 127.799 10.6217Z" fill="#DBDBDB"/>
<path d="M178.946 165.27C171.864 166.908 167.003 162.288 165.365 155.209L149.091 94.7791C147.472 87.6721 151.895 80.5913 158.991 78.9287C166.098 77.3094 173.179 81.7324 174.842 88.8293L188.122 150.819C189.76 157.901 186.026 163.631 178.946 165.27Z" fill="url(#paint3_linear_864_821)"/>
<path d="M173.016 90.3086C171.635 84.3326 165.671 80.6074 159.695 81.9882C153.719 83.369 149.994 89.3328 151.375 95.3089L166.339 160.076C167.72 166.052 173.684 169.778 179.66 168.397C185.636 167.016 189.361 161.052 187.98 155.076L173.016 90.3086Z" fill="#FFCBB4"/>
<path d="M187.473 215.319H94.5857V236.971H187.473V215.319Z" fill="url(#paint4_linear_864_821)"/>
<path d="M184.962 217.829H97.0962V234.775H184.962V217.829Z" fill="#4D8AF0"/>
<path d="M83.9381 129.113C80.4534 134.613 73.1807 136.266 67.6609 132.813L44.2603 117.671C38.7601 114.187 37.107 106.914 40.5605 101.394C44.0452 95.894 51.3179 94.2409 56.8377 97.6944L80.2383 112.836C85.7385 116.32 87.3916 123.593 83.9381 129.113Z" fill="url(#paint5_linear_864_821)"/>
<path d="M78.0638 161.162C74.548 166.712 67.2091 168.381 61.6391 164.896L47.1443 154.327C41.5937 150.811 39.9251 143.473 43.41 137.902C46.9258 132.352 54.2647 130.683 59.8347 134.168L74.3294 144.74C79.8782 148.256 81.5466 155.592 78.0638 161.162Z" fill="url(#paint6_linear_864_821)"/>
<g opacity="0.5">
<path d="M112.03 119.538C127.618 119.538 140.254 106.902 140.254 91.3147C140.254 75.7271 127.618 63.0909 112.03 63.0909C96.4426 63.0909 83.8064 75.7271 83.8064 91.3147C83.8064 106.902 96.4426 119.538 112.03 119.538Z" fill="url(#paint7_linear_864_821)"/>
</g>
<path d="M112.03 117.878C126.701 117.878 138.594 105.985 138.594 91.3147C138.594 76.6439 126.701 64.7509 112.03 64.7509C97.3593 64.7509 85.4663 76.6439 85.4663 91.3147C85.4663 105.985 97.3593 117.878 112.03 117.878Z" fill="#69F0AE"/>
<path d="M100.501 87.7686L110.461 96.9004L124.573 76.1484L129.556 80.3L110.461 105.204L96.3491 89.4318L100.501 87.7686Z" fill="white"/>
<path d="M76.8931 160.374C73.6142 165.548 66.7723 167.103 61.5793 163.854L48.0605 154.013C42.8864 150.734 41.3316 143.893 44.5804 138.7C47.8593 133.525 54.7011 131.971 59.8942 135.219L73.4098 145.079C78.5735 148.356 80.1285 155.184 76.8931 160.374Z" fill="#FFCBB4"/>
<path d="M82.6515 128.281C79.3726 133.455 72.5307 135.01 67.3377 131.761L45.321 117.514C40.1469 114.236 38.5921 107.394 41.8409 102.201C45.1198 97.0266 51.9616 95.4718 57.1547 98.7206L79.1714 112.967C84.3454 116.246 85.9002 123.088 82.6515 128.281Z" fill="#FFCBB4"/>
<path d="M89.9884 97.2143C86.4865 102.739 79.1811 104.399 73.6359 100.93L43.9811 81.6213C38.4568 78.1194 36.7969 70.8139 40.2656 65.2688C43.7675 59.7445 51.073 58.0846 56.6181 61.5533L86.2729 80.8618C91.7972 84.3637 93.4571 91.6692 89.9884 97.2143Z" fill="url(#paint8_linear_864_821)"/>
<path d="M88.4128 96.2101C85.1339 101.384 78.292 102.939 73.099 99.6902L45.3239 81.6055C40.1499 78.3266 38.595 71.4848 41.8438 66.2918C45.1227 61.1177 51.9646 59.5629 57.1576 62.8116L84.9295 80.8963C90.1047 84.1742 91.6609 91.0163 88.4128 96.2101Z" fill="#FFCBB4"/>
</g>
<defs>
<linearGradient id="paint0_linear_864_821" x1="125.882" y1="225.401" x2="125.882" y2="134.636" gradientUnits="userSpaceOnUse">
<stop stop-color="#808080" stop-opacity="0.25"/>
<stop offset="0.54" stop-color="#808080" stop-opacity="0.12"/>
<stop offset="1" stop-color="#808080" stop-opacity="0.1"/>
</linearGradient>
<linearGradient id="paint1_linear_864_821" x1="69.9233" y1="69.8598" x2="69.9233" y2="22.9958" gradientUnits="userSpaceOnUse">
<stop stop-color="#808080" stop-opacity="0.25"/>
<stop offset="0.54" stop-color="#808080" stop-opacity="0.12"/>
<stop offset="1" stop-color="#808080" stop-opacity="0.1"/>
</linearGradient>
<linearGradient id="paint2_linear_864_821" x1="112.033" y1="182.62" x2="112.033" y2="-0.00313493" gradientUnits="userSpaceOnUse">
<stop stop-color="#808080" stop-opacity="0.25"/>
<stop offset="0.54" stop-color="#808080" stop-opacity="0.12"/>
<stop offset="1" stop-color="#808080" stop-opacity="0.1"/>
</linearGradient>
<linearGradient id="paint3_linear_864_821" x1="168.629" y1="165.596" x2="168.629" y2="78.5898" gradientUnits="userSpaceOnUse">
<stop stop-color="#808080" stop-opacity="0.25"/>
<stop offset="0.54" stop-color="#808080" stop-opacity="0.12"/>
<stop offset="1" stop-color="#808080" stop-opacity="0.1"/>
</linearGradient>
<linearGradient id="paint4_linear_864_821" x1="141.035" y1="236.965" x2="141.035" y2="215.312" gradientUnits="userSpaceOnUse">
<stop stop-color="#808080" stop-opacity="0.25"/>
<stop offset="0.54" stop-color="#808080" stop-opacity="0.12"/>
<stop offset="1" stop-color="#808080" stop-opacity="0.1"/>
</linearGradient>
<linearGradient id="paint5_linear_864_821" x1="62.2446" y1="134.617" x2="62.2446" y2="95.8931" gradientUnits="userSpaceOnUse">
<stop stop-color="#808080" stop-opacity="0.25"/>
<stop offset="0.54" stop-color="#808080" stop-opacity="0.12"/>
<stop offset="1" stop-color="#808080" stop-opacity="0.1"/>
</linearGradient>
<linearGradient id="paint6_linear_864_821" x1="60.7385" y1="166.716" x2="60.7385" y2="132.345" gradientUnits="userSpaceOnUse">
<stop stop-color="#808080" stop-opacity="0.25"/>
<stop offset="0.54" stop-color="#808080" stop-opacity="0.12"/>
<stop offset="1" stop-color="#808080" stop-opacity="0.1"/>
</linearGradient>
<linearGradient id="paint7_linear_864_821" x1="112.03" y1="119.538" x2="112.03" y2="63.0877" gradientUnits="userSpaceOnUse">
<stop stop-color="#808080" stop-opacity="0.25"/>
<stop offset="0.54" stop-color="#808080" stop-opacity="0.12"/>
<stop offset="1" stop-color="#808080" stop-opacity="0.1"/>
</linearGradient>
<linearGradient id="paint8_linear_864_821" x1="65.1254" y1="102.753" x2="65.1254" y2="59.7521" gradientUnits="userSpaceOnUse">
<stop stop-color="#808080" stop-opacity="0.25"/>
<stop offset="0.54" stop-color="#808080" stop-opacity="0.12"/>
<stop offset="1" stop-color="#808080" stop-opacity="0.1"/>
</linearGradient>
<clipPath id="clip0_864_821">
<rect width="227.986" height="238.209" fill="white" transform="translate(0.698242)"/>
</clipPath>
</defs>
</svg>
