<svg width="28" height="28" viewBox="0 0 28 28" fill="none" xmlns="http://www.w3.org/2000/svg">
<path d="M24.8297 4.70166C24.7883 5.79891 23.8536 6.67697 22.7001 6.67697C21.5464 6.67697 20.6095 5.79891 20.5706 4.70166H16.3249C16.2835 5.79891 15.3503 6.67697 14.1953 6.67697C13.0417 6.67697 12.1078 5.79891 12.0684 4.70166H7.78159C7.74309 5.79891 6.80662 6.67697 5.65294 6.67697C4.49728 6.67697 3.56431 5.79891 3.52406 4.70166H0V23.2983H3.52406C3.56431 22.2008 4.49728 21.3229 5.65294 21.3229C6.80684 21.3229 7.74309 22.201 7.78159 23.2983H12.0682C12.1076 22.2008 13.0414 21.3229 14.1951 21.3229C15.3501 21.3229 16.2833 22.201 16.3247 23.2983H20.5702C20.6093 22.2008 21.546 21.3229 22.6997 21.3229C23.8532 21.3229 24.7879 22.201 24.8292 23.2983H28V4.70166H24.8297Z" fill="#F5B146"/>
<path d="M4.75671 14.2021H22.2683V17.7931H4.75671V14.2021Z" fill="#E5226B"/>
<path d="M4.75671 10.3823H12.3902V12.1783H4.75671V10.3823Z" fill="#0092D2"/>
<path d="M4.7677 11.1611H12.3774V12.1781H4.7677V11.1611Z" fill="#0085BF"/>
<path d="M4.7677 15.9546H22.2922V17.793H4.7677V15.9546Z" fill="#C9005B"/>
</svg>
