<svg width="20" height="20" viewBox="0 0 20 20" fill="none" xmlns="http://www.w3.org/2000/svg">
<g clip-path="url(#clip0_648_2114)">
<path d="M18.9736 4.43476L16.2526 3.22489L7.66268 7.26322V9.85645L6.16418 9.19015V6.59691L14.7541 2.55861L11.869 1.27574C11.4826 1.10397 10.8505 1.10397 10.4641 1.27574L3.35954 4.43476C2.79356 4.68642 2.33167 5.39913 2.3331 6.01855L2.34418 10.6995C2.78954 10.5562 3.2634 10.4771 3.75578 10.4771C6.30314 10.4771 8.37582 12.5498 8.37582 15.0974C8.37582 15.7628 8.2316 16.3942 7.97725 16.9663L10.4859 18.0387C10.8596 18.1985 11.471 18.1985 11.8448 18.0388L18.9332 15.0096C19.5088 14.7636 19.981 14.0502 19.9825 13.4242L20 6.01851C20.0014 5.3991 19.5396 4.68639 18.9736 4.43476ZM16.2306 9.80917L17.1932 7.77815C17.2904 7.57315 17.5341 7.45489 17.6316 7.56606L18.6194 8.69224C18.7181 8.80469 18.5929 9.06077 18.395 9.1526L17.9791 9.34551L17.9708 12.2713C17.9704 12.3991 17.8575 12.5513 17.7189 12.6111L17.0963 12.8798C16.9599 12.9387 16.8495 12.8841 16.8494 12.758L16.8473 9.87057L16.4445 10.0574C16.2551 10.1453 16.1365 10.0075 16.2306 9.80917ZM12.681 11.4687L13.5559 9.53809C13.6442 9.34335 13.8698 9.23378 13.9619 9.34162L14.8943 10.4339C14.9874 10.5429 14.8738 10.7861 14.6905 10.8712L14.3055 11.0498L14.3303 13.8513C14.3314 13.9738 14.2278 14.1181 14.0994 14.1735L13.5221 14.4227C13.3956 14.4774 13.292 14.4235 13.2905 14.3026L13.2567 11.5364L12.8832 11.7097C12.7076 11.7911 12.5955 11.6575 12.681 11.4687ZM19.0821 13.0481C19.0816 13.1124 19.0239 13.1885 18.9531 13.2183L12.3599 15.9881C12.2984 16.014 12.2478 15.9869 12.2469 15.9276L12.2418 15.6054C12.2409 15.546 12.2901 15.4766 12.3517 15.4503L18.9566 12.6367C19.0275 12.6065 19.0847 12.6342 19.0843 12.6986L19.0821 13.0481ZM3.75572 11.3417C1.6815 11.3417 0 13.0232 0 15.0974C0 17.1716 1.6815 18.8531 3.75572 18.8531C5.82993 18.8531 7.51144 17.1716 7.51144 15.0974C7.51147 13.0232 5.82993 11.3417 3.75572 11.3417ZM6.20984 14.3257L3.89859 16.9258C3.78474 17.0539 3.62621 17.1197 3.46654 17.1197C3.33971 17.1197 3.21219 17.0782 3.10582 16.993L1.66131 15.8374C1.41216 15.6382 1.3717 15.2746 1.57114 15.0254C1.77033 14.776 2.13415 14.7357 2.38327 14.9351L3.39938 15.748L5.34624 13.5578C5.55797 13.3194 5.92333 13.2977 6.16186 13.5098C6.40042 13.722 6.42186 14.087 6.20984 14.3257Z" fill="black"/>
</g>
<defs>
<clipPath id="clip0_648_2114">
<rect width="20" height="20" fill="white"/>
</clipPath>
</defs>
</svg>
