<svg width="20" height="20" viewBox="0 0 20 20" fill="none" xmlns="http://www.w3.org/2000/svg">
<g clip-path="url(#clip0_648_2107)">
<path d="M3.2752 0C2.56895 0 2.0002 0.56875 2.0002 1.275V4.3625H2.3252C2.8127 4.3625 3.24707 4.59063 3.5627 4.9375C3.87051 3.55469 5.85332 2.875 9.6002 2.875C13.8236 2.875 16.1174 3.59688 16.4377 5C16.7518 4.64219 17.2127 4.4125 17.7252 4.4125H18.0002V1.275C18.0002 0.56875 17.4033 0 16.6752 0H3.2752ZM9.6002 3.675C7.66426 3.675 4.40488 3.88438 4.3252 5.2625L4.0377 7.475L3.8127 9.1125L3.6502 10.4H3.2752C3.14238 10.4 3.0252 10.4156 2.9002 10.4375C2.83457 10.45 2.7627 10.4688 2.7002 10.4875C2.6502 10.5016 2.59863 10.5203 2.5502 10.5375C2.46582 10.5688 2.39082 10.5969 2.3127 10.6375C2.29395 10.6469 2.28145 10.6656 2.2627 10.675C2.17363 10.7266 2.08145 10.775 2.0002 10.8375C1.88926 10.925 1.79238 11.0313 1.7002 11.1375C1.68301 11.1578 1.66582 11.1672 1.6502 11.1875C1.59551 11.2578 1.54551 11.3344 1.5002 11.4125C1.46582 11.4703 1.42832 11.5375 1.4002 11.6C1.38145 11.6406 1.36738 11.6828 1.3502 11.725C1.3127 11.8234 1.27363 11.9188 1.2502 12.025C1.24395 12.05 1.24238 12.075 1.2377 12.1C1.21582 12.2219 1.2002 12.3453 1.2002 12.475V15.2H11.2252C11.2127 15.3313 11.2002 15.4656 11.2002 15.6C11.2002 15.7344 11.2127 15.8688 11.2252 16H1.2002V18H11.9127C12.6986 19.2047 14.058 20 15.6002 20C15.6846 20 15.7674 19.9922 15.8502 19.9875C15.8986 19.9938 15.9502 20 16.0002 20H17.6002C18.2611 20 18.8002 19.4609 18.8002 18.8H18.6127C19.4658 17.9969 20.0002 16.8609 20.0002 15.6C20.0002 14.4359 19.5424 13.375 18.8002 12.5875V12.475C18.8002 12.3453 18.7846 12.2219 18.7627 12.1C18.758 12.075 18.7549 12.05 18.7502 12.025C18.7268 11.9188 18.7002 11.8234 18.6627 11.725C18.6471 11.6828 18.6189 11.6406 18.6002 11.6C18.5721 11.5375 18.5471 11.4703 18.5127 11.4125C18.4674 11.3359 18.4064 11.2578 18.3502 11.1875C18.3346 11.1656 18.3158 11.1563 18.3002 11.1375C18.208 11.0297 18.1127 10.9234 18.0002 10.8375C17.9189 10.775 17.8283 10.7266 17.7377 10.675C17.7189 10.6656 17.7064 10.6469 17.6877 10.6375C17.6096 10.5953 17.5346 10.5688 17.4502 10.5375C17.4018 10.5203 17.3518 10.5016 17.3002 10.4875C17.2377 10.4688 17.1658 10.45 17.1002 10.4375C16.9752 10.4141 16.8564 10.4 16.7252 10.4H16.3502L16.1752 9.0375L16.0127 7.7875L15.6752 5.3C15.583 3.76094 10.5986 3.675 9.6002 3.675ZM9.6002 4.475C12.9721 4.475 14.7361 5.07344 14.8877 5.375L15.2877 8.45C14.6955 8.55 12.9377 8.8 10.0002 8.8C7.0627 8.8 5.30488 8.55156 4.7127 8.45L5.1252 5.3375C5.13457 5.16563 5.95801 4.475 9.6002 4.475ZM1.6752 5.1625C1.19707 5.1625 0.762695 5.59688 0.762695 6.075V8.275C0.762695 8.78281 1.18926 9.2375 1.6752 9.2375H2.2752C2.78301 9.2375 3.2377 8.8125 3.2377 8.325V6.125C3.2377 5.61719 2.81113 5.1625 2.3252 5.1625H1.6752ZM17.7252 5.2125C17.2221 5.2125 16.8127 5.62188 16.8127 6.125V8.325C16.8127 8.82969 17.2221 9.2375 17.7252 9.2375H18.3252C18.8033 9.2375 19.2377 8.80313 19.2377 8.325V6.125C19.2377 5.62188 18.8283 5.2125 18.3252 5.2125H17.7252ZM7.8377 10.8H12.1627C12.4377 10.8 12.658 10.9625 12.7502 11.2C12.7799 11.275 12.8002 11.3516 12.8002 11.4375V12.2125C12.2268 12.6859 11.7893 13.2969 11.5127 14H7.8377C7.47832 14 7.2002 13.7219 7.2002 13.3625V11.4375C7.2002 11.3516 7.22207 11.275 7.2502 11.2C7.34238 10.9625 7.5627 10.8 7.8377 10.8ZM15.6002 12C17.5924 12 19.2002 13.6078 19.2002 15.6C19.2002 17.5922 17.5924 19.2 15.6002 19.2C13.608 19.2 12.0002 17.5922 12.0002 15.6C12.0002 13.6078 13.608 12 15.6002 12ZM3.4752 12.4H5.3252C5.48457 12.4 5.6002 12.5156 5.6002 12.675V13.725C5.6002 13.8844 5.48457 14 5.3252 14H3.4752C3.31582 14 3.2002 13.8844 3.2002 13.725V12.675C3.2002 12.5156 3.31582 12.4 3.4752 12.4ZM17.6002 14.1375L15.3252 16.4125L13.9002 14.9875L13.3252 15.55L15.0502 17.2625L15.3252 17.55L15.6127 17.2625L18.1752 14.7125L17.6002 14.1375ZM1.2002 18.8C1.2002 19.4609 1.73926 20 2.4002 20H4.0002C4.66113 20 5.2002 19.4609 5.2002 18.8H1.2002Z" fill="black"/>
</g>
<defs>
<clipPath id="clip0_648_2107">
<rect width="20" height="20" fill="white"/>
</clipPath>
</defs>
</svg>
