<svg width="20" height="20" viewBox="0 0 20 20" fill="none" xmlns="http://www.w3.org/2000/svg">
<g clip-path="url(#clip0_648_2099)">
<path d="M9.75 1.66669C9.66667 1.66669 9.66667 1.66669 9.58333 1.66669C9.58333 1.66669 9.58333 1.66669 9.5 1.66669C9.33333 1.66669 9.25 1.66669 9.08333 1.66669L9.25 3.33335C9.58333 3.33335 10 3.33335 10.3333 3.33335C13.6667 3.58335 16.4167 6.25002 16.5833 9.66669C16.75 13.3334 13.9167 16.5 10.25 16.6667C10.25 16.6667 10.1667 16.6667 10.0833 16.6667C9.83333 16.6667 9.5 16.6667 9.25 16.6667L9.16667 18.3334C9.5 18.3334 9.83333 18.3334 10.25 18.3334C10.3333 18.3334 10.5 18.3334 10.5833 18.3334C15.0833 18 18.5 14.1667 18.3333 9.66669C18.1667 5.41669 14.75 2.08335 10.5833 1.75002C10.4167 1.75002 10.3333 1.75002 10.1667 1.75002C10 1.66669 9.91667 1.66669 9.75 1.66669ZM6.83333 2.25002C6.41667 2.50002 6 2.66669 5.58333 2.91669L6.5 4.33335C6.75 4.16669 7.08333 4.00002 7.41667 3.83335L6.83333 2.25002ZM3.75 4.50002C3.41667 4.83335 3.16667 5.25002 2.91667 5.58335L4.33333 6.41669C4.5 6.16669 4.75 5.91669 5 5.58335L3.75 4.50002ZM12.8333 7.00002L9 11.3334L6.75 9.58335L5.83333 11L9.33333 13.6667L14.1667 8.16669L12.8333 7.00002ZM2 7.50002C1.83333 7.91669 1.75 8.41669 1.75 8.83335L3.41667 9.08335C3.5 8.75002 3.5 8.33335 3.66667 8.00002L2 7.50002ZM3.41667 10.8334L1.75 11C1.75 11.0834 1.75 11.1667 1.75 11.25C1.83333 11.5834 1.91667 12 2 12.3334L3.58333 11.8334C3.5 11.5834 3.41667 11.25 3.41667 10.9167V10.8334ZM4.33333 13.5L2.91667 14.4167C3.16667 14.8334 3.41667 15.1667 3.75 15.5L5 14.4167C4.75 14.0834 4.5 13.8334 4.33333 13.5ZM6.5 15.6667L5.58333 17.0834C6 17.3334 6.41667 17.5 6.83333 17.75L7.5 16.25C7.08333 16 6.75 15.8334 6.5 15.6667Z" fill="black"/>
</g>
<defs>
<clipPath id="clip0_648_2099">
<rect width="20" height="20" fill="white"/>
</clipPath>
</defs>
</svg>
