<svg width="20" height="20" viewBox="0 0 20 20" fill="none" xmlns="http://www.w3.org/2000/svg">
<path d="M18.7313 4.0656C18.7358 4.01246 18.7379 3.95916 18.7379 3.90599C18.7379 2.44252 17.5473 1.25189 16.0838 1.25189C16.0537 1.25189 16.0245 1.25306 15.9564 1.25605L4.00805 1.25521C3.97352 1.25355 3.93846 1.25189 3.90211 1.25189C2.44094 1.25189 1.2523 2.44017 1.2523 3.90252L1.25598 4.11642H1.25L1.25764 15.737L1.25447 16.1351C1.25447 17.581 2.43064 18.7571 3.87635 18.7571C3.90893 18.7571 4.0132 18.7525 4.01502 18.7525L15.9083 18.7541C15.9666 18.7611 16.0297 18.7633 16.0948 18.7633C16.7943 18.7633 17.4525 18.4907 17.9479 17.9956C18.4435 17.5007 18.7163 16.8436 18.7163 16.1442L18.7135 15.9095H18.7314L18.7313 4.06558V4.0656ZM3.93332 17.6168L3.88283 17.6128C3.05229 17.6128 2.39561 16.9319 2.38797 16.0638V6.4975H17.594L17.603 15.9738L17.5857 16.0297C17.5753 16.0656 17.5701 16.0997 17.5701 16.1307C17.5701 16.9194 16.9538 17.5715 16.1667 17.6151L15.9555 17.6273V17.617L3.93332 17.6168ZM17.5938 5.35986H2.38912L2.3818 4.07209L2.3984 4.01498C2.40855 3.97943 2.41367 3.94408 2.41367 3.9125C2.41367 3.08758 3.09193 2.41513 3.94061 2.41232L3.94939 2.41099L16.0232 2.41135L16.0752 2.41531C16.9019 2.41531 17.5745 3.08795 17.5745 3.91468C17.5745 3.94058 17.5783 3.96717 17.5873 4.0032L17.5938 4.02047V5.35986H17.5938Z" fill="black"/>
<path d="M13.6266 9.2077C13.4726 9.2077 13.3275 9.26782 13.218 9.37727L8.85416 13.7413L6.76973 11.657C6.66145 11.5476 6.5168 11.4873 6.36266 11.4873C6.20852 11.4873 6.06338 11.5474 5.9541 11.6565C5.84516 11.7643 5.78469 11.9085 5.78418 12.0626C5.78385 12.217 5.84414 12.3625 5.95391 12.4726L8.44512 14.964C8.55391 15.0726 8.69922 15.1324 8.85416 15.1324C9.00895 15.1324 9.15424 15.0726 9.26303 14.9638L14.0335 10.1934C14.1424 10.0857 14.2029 9.94177 14.2034 9.78747C14.2037 9.63235 14.1433 9.48653 14.0338 9.37759C13.9254 9.26798 13.7807 9.2077 13.6266 9.2077H13.6266Z" fill="black"/>
</svg>
